<?xml version="1.0" encoding="utf-8"?>
<!-- Generator: Adobe Illustrator 19.1.0, SVG Export Plug-In . SVG Version: 6.00 Build 0)  -->
<!DOCTYPE svg PUBLIC "-//W3C//DTD SVG 1.1//EN" "http://www.w3.org/Graphics/SVG/1.1/DTD/svg11.dtd">
<svg version="1.1" id="Layer_1" xmlns="http://www.w3.org/2000/svg" xmlns:xlink="http://www.w3.org/1999/xlink" x="0px" y="0px"
	 viewBox="-255 347 100 100" style="enable-background:new -255 347 100 100;" xml:space="preserve">
<style type="text/css">
	.st0{fill:#1F75CF;}
	.st1{fill:none;stroke:#1F75CF;stroke-width:3;}
	.st2{fill:#FFC100;}
	.st3{fill:none;stroke:#FFFFFF;stroke-width:3;}
	.st4{font-family:'Helvetica-Bold';}
	.st5{font-size:11px;}
	.st6{letter-spacing:2;}
	.st7{letter-spacing:1;}
	.st8{font-size:22.8286px;}
	.st9{letter-spacing:3;}
</style>
<polygon class="st0" points="-251.1,371.4 -251.1,429.3 -202.6,421.8 -165.5,427.8 -165.5,371.4 "/>
<g>
	<polygon class="st1" points="-251.1,371.4 -251.1,429.3 -202.6,421.8 -165.5,427.8 -165.5,371.4 	"/>
</g>
<polygon class="st2" points="-246.1,365.4 -246.1,423.3 -202.6,416.3 -159,423.3 -159,365.4 "/>
<g>
	<polygon class="st3" points="-246.1,365.4 -246.1,423.3 -202.6,416.3 -159,423.3 -159,365.4 	"/>
</g>
<text transform="matrix(1 0 0 1 -223.7371 381.7624)"><tspan x="0" y="0" class="st0 st4 st5 st6">D</tspan><tspan x="10" y="0" class="st0 st4 st5 st6">A</tspan><tspan x="20.2" y="0" class="st0 st4 st5 st6">I</tspan><tspan x="25.5" y="0" class="st0 st4 st5 st7">L</tspan><tspan x="33.2" y="0" class="st0 st4 st5 st6">Y</tspan><tspan x="-16.2" y="24.7" class="st0 st4 st8">Y</tspan><tspan x="-1.4" y="24.7" class="st0 st4 st8 st7">A</tspan><tspan x="17" y="24.7" class="st0 st4 st8 st6">L</tspan><tspan x="33" y="24.7" class="st0 st4 st8 st6">I</tspan><tspan x="41.5" y="24.7" class="st0 st4 st8 st9">E</tspan></text>
</svg>
