<?xml version="1.0" encoding="utf-8"?>
<!-- Generator: Adobe Illustrator 19.1.0, SVG Export Plug-In . SVG Version: 6.00 Build 0)  -->
<!DOCTYPE svg PUBLIC "-//W3C//DTD SVG 1.1//EN" "http://www.w3.org/Graphics/SVG/1.1/DTD/svg11.dtd">
<svg version="1.1" id="Layer_1" xmlns="http://www.w3.org/2000/svg" xmlns:xlink="http://www.w3.org/1999/xlink" x="0px" y="0px"
	 viewBox="0 0 95 67.5" style="enable-background:new 0 0 95 67.5;" xml:space="preserve">
<style type="text/css">
	.st0{fill:#3674BA;}
	.st1{fill:none;stroke:#3573BA;stroke-width:3;}
	.st2{fill:#FDC110;}
	.st3{fill:none;stroke:#FFFFFF;stroke-width:3;}
	.st4{enable-background:new    ;}
</style>
<g>
	<polygon class="st0" points="1.5,7.5 1.5,65.3 50,57.8 87,63.8 87,7.5 	"/>
	<g>
		<polygon class="st1" points="1.5,7.5 1.5,65.3 50,57.8 87,63.8 87,7.5 		"/>
	</g>
	<polygon class="st2" points="6.5,1.5 6.5,59.3 50,52.3 93.5,59.3 93.5,1.5 	"/>
	<g>
		<polygon class="st3" points="6.5,1.5 6.5,59.3 50,52.3 93.5,59.3 93.5,1.5 		"/>
	</g>
	<g class="st4">
		<path class="st0" d="M34.3,10.1c0.6,0.2,1,0.5,1.3,1c0.3,0.4,0.5,0.8,0.6,1.3s0.2,0.9,0.2,1.3c0,1.1-0.2,1.9-0.6,2.7
			c-0.6,1-1.5,1.5-2.7,1.5h-3.4V10h3.4C33.5,10,34,10,34.3,10.1z M31.3,11.3v5.2h1.5c0.8,0,1.3-0.4,1.6-1.2c0.2-0.4,0.3-0.9,0.3-1.5
			c0-0.8-0.1-1.4-0.4-1.9s-0.8-0.6-1.5-0.6H31.3z"/>
	</g>
	<g class="st4">
		<path class="st0" d="M42,9.8h1.9l2.8,7.9h-1.8l-0.5-1.6h-2.9L41,17.7h-1.7L42,9.8z M41.8,14.8h2l-1-3.1L41.8,14.8z"/>
	</g>
	<g class="st4">
		<path class="st0" d="M51.3,17.8h-1.6V9.9h1.6V17.8z"/>
	</g>
	<g class="st4">
		<path class="st0" d="M55.1,9.8h1.7v6.5h4v1.4h-5.6V9.8L55.1,9.8L55.1,9.8z"/>
	</g>
	<g class="st4">
		<path class="st0" d="M67.3,9.8h1.9l-2.6,4.9v3h-1.7v-3l-2.7-4.9h1.9l1.6,3.4L67.3,9.8z"/>
	</g>
	<g class="st4">
		<path class="st0" d="M23.7,26.1h3.9l-5.5,10.3v6.2h-3.4v-6.2L13,26.1h4l3.4,7.2L23.7,26.1z"/>
	</g>
	<g class="st4">
		<path class="st0" d="M33.8,26.1h3.9l5.8,16.4h-3.7l-1.1-3.4h-6.1l-1.1,3.4h-3.6L33.8,26.1z M33.6,36.3h4.2l-2.1-6.5L33.6,36.3z"/>
	</g>
	<g class="st4">
		<path class="st0" d="M47.5,26.1h3.4v13.5h8.2v3H47.5V26.1z"/>
	</g>
	<g class="st4">
		<path class="st0" d="M66.6,42.6h-3.4V26.1h3.4V42.6z"/>
	</g>
	<g class="st4">
		<path class="st0" d="M84.3,29h-8.7v3.5h8v2.9h-8v4.2h9.1v3H72.2V26.1h12V29L84.3,29L84.3,29z"/>
	</g>
</g>
</svg>
